<?xml version="1.0" encoding="UTF-8" standalone="no"?>
<!-- Created with Inkscape (http://www.inkscape.org/) -->

<svg
   xmlns:dc="http://purl.org/dc/elements/1.1/"
   xmlns:cc="http://creativecommons.org/ns#"
   xmlns:rdf="http://www.w3.org/1999/02/22-rdf-syntax-ns#"
   xmlns:svg="http://www.w3.org/2000/svg"
   xmlns="http://www.w3.org/2000/svg"
   xmlns:sodipodi="http://sodipodi.sourceforge.net/DTD/sodipodi-0.dtd"
   xmlns:inkscape="http://www.inkscape.org/namespaces/inkscape"
   width="256"
   height="256"
   id="svg2"
   version="1.1"
   inkscape:version="0.48.5 r10040"
   sodipodi:docname="Nouveau document 1">
  <defs
     id="defs4" />
  <sodipodi:namedview
     id="base"
     pagecolor="#ffffff"
     bordercolor="#666666"
     borderopacity="1.0"
     inkscape:pageopacity="0.0"
     inkscape:pageshadow="2"
     inkscape:zoom="2.8"
     inkscape:cx="133.20609"
     inkscape:cy="134.14873"
     inkscape:document-units="px"
     inkscape:current-layer="layer1"
     showgrid="false"
     inkscape:showpageshadow="false"
     inkscape:window-width="1920"
     inkscape:window-height="1028"
     inkscape:window-x="-8"
     inkscape:window-y="-8"
     inkscape:window-maximized="1" />
  <metadata
     id="metadata7">
    <rdf:RDF>
      <cc:Work
         rdf:about="">
        <dc:format>image/svg+xml</dc:format>
        <dc:type
           rdf:resource="http://purl.org/dc/dcmitype/StillImage" />
        <dc:title></dc:title>
      </cc:Work>
    </rdf:RDF>
  </metadata>
  <g
     inkscape:label="Calque 1"
     inkscape:groupmode="layer"
     id="layer1"
     transform="translate(0,-796.36218)">
    <rect
       style="fill:#ffffff;fill-opacity:1;fill-rule:nonzero;stroke:#000000;stroke-width:0.9884131;stroke-linecap:round;stroke-linejoin:round;stroke-miterlimit:4;stroke-opacity:1;stroke-dasharray:none"
       id="rect2987"
       width="84.344589"
       height="84.344589"
       x="0.49420655"
       y="967.52338"
       rx="14.826197"
       ry="14.826196" />
    <rect
       style="fill:#ffffff;fill-opacity:1;fill-rule:nonzero;stroke:#000000;stroke-width:0.9884131;stroke-linecap:round;stroke-linejoin:round;stroke-miterlimit:4;stroke-opacity:1;stroke-dasharray:none"
       id="rect2987-1"
       width="84.344589"
       height="84.344589"
       x="85.827538"
       y="967.52338"
       rx="14.826197"
       ry="14.826196" />
    <rect
       style="fill:#ffffff;fill-opacity:1;fill-rule:nonzero;stroke:#000000;stroke-width:0.9884131;stroke-linecap:round;stroke-linejoin:round;stroke-miterlimit:4;stroke-opacity:1;stroke-dasharray:none"
       id="rect2987-7"
       width="84.344589"
       height="84.344589"
       x="171.16121"
       y="967.52338"
       rx="14.826197"
       ry="14.826196" />
    <rect
       style="fill:#ffffff;fill-opacity:1;fill-rule:nonzero;stroke:#000000;stroke-width:0.9884131;stroke-linecap:round;stroke-linejoin:round;stroke-miterlimit:4;stroke-opacity:1;stroke-dasharray:none"
       id="rect2987-4"
       width="84.344589"
       height="84.344589"
       x="0.49420655"
       y="882.19006"
       rx="14.826197"
       ry="14.826196" />
    <rect
       style="fill:#ffffff;fill-opacity:1;fill-rule:nonzero;stroke:#000000;stroke-width:0.9884131;stroke-linecap:round;stroke-linejoin:round;stroke-miterlimit:4;stroke-opacity:1;stroke-dasharray:none"
       id="rect2987-1-0"
       width="84.344589"
       height="84.344589"
       x="85.827538"
       y="882.19006"
       rx="14.826197"
       ry="14.826196" />
    <rect
       style="fill:#ffffff;fill-opacity:1;fill-rule:nonzero;stroke:#000000;stroke-width:0.9884131;stroke-linecap:round;stroke-linejoin:round;stroke-miterlimit:4;stroke-opacity:1;stroke-dasharray:none"
       id="rect2987-7-9"
       width="84.344589"
       height="84.344589"
       x="171.16121"
       y="882.19006"
       rx="14.826197"
       ry="14.826196" />
    <rect
       style="fill:#ffffff;fill-opacity:1;fill-rule:nonzero;stroke:#000000;stroke-width:0.9884131;stroke-linecap:round;stroke-linejoin:round;stroke-miterlimit:4;stroke-opacity:1;stroke-dasharray:none"
       id="rect2987-48"
       width="84.344589"
       height="84.344589"
       x="0.49420655"
       y="796.85669"
       rx="14.826197"
       ry="14.826196" />
    <rect
       style="fill:#ffffff;fill-opacity:1;fill-rule:nonzero;stroke:#000000;stroke-width:0.9884131;stroke-linecap:round;stroke-linejoin:round;stroke-miterlimit:4;stroke-opacity:1;stroke-dasharray:none"
       id="rect2987-1-8"
       width="84.344589"
       height="84.344589"
       x="85.827538"
       y="796.85669"
       rx="14.826197"
       ry="14.826196" />
    <rect
       style="fill:#ffffff;fill-opacity:1;fill-rule:nonzero;stroke:#000000;stroke-width:0.9884131;stroke-linecap:round;stroke-linejoin:round;stroke-miterlimit:4;stroke-opacity:1;stroke-dasharray:none"
       id="rect2987-7-2"
       width="84.344589"
       height="84.344589"
       x="171.16121"
       y="796.85669"
       rx="14.826197"
       ry="14.826196" />
    <path
       sodipodi:type="arc"
       style="fill:#000000;fill-opacity:1;fill-rule:nonzero;stroke:#000000;stroke-width:1;stroke-linecap:round;stroke-linejoin:round;stroke-miterlimit:4;stroke-opacity:1;stroke-dasharray:none"
       id="path3830"
       sodipodi:cx="39.642857"
       sodipodi:cy="46.17857"
       sodipodi:rx="7.8571429"
       sodipodi:ry="7.6785712"
       d="m 47.5,46.17857 a 7.8571429,7.6785712 0 1 1 -15.714286,0 7.8571429,7.6785712 0 1 1 15.714286,0 z"
       transform="matrix(1.1957541,0,0,1.2235624,-4.7364416,782.52648)" />
    <path
       sodipodi:type="arc"
       style="fill:#000000;fill-opacity:1;fill-rule:nonzero;stroke:#000000;stroke-width:1;stroke-linecap:round;stroke-linejoin:round;stroke-miterlimit:4;stroke-opacity:1;stroke-dasharray:none"
       id="path3830-4"
       sodipodi:cx="39.642857"
       sodipodi:cy="46.17857"
       sodipodi:rx="7.8571429"
       sodipodi:ry="7.6785712"
       d="m 47.5,46.17857 a 7.8571429,7.6785712 0 1 1 -15.714286,0 7.8571429,7.6785712 0 1 1 15.714286,0 z"
       transform="matrix(1.1957541,0,0,1.2235624,165.93023,782.52648)" />
    <path
       sodipodi:type="arc"
       style="fill:#000000;fill-opacity:1;fill-rule:nonzero;stroke:#000000;stroke-width:1;stroke-linecap:round;stroke-linejoin:round;stroke-miterlimit:4;stroke-opacity:1;stroke-dasharray:none"
       id="path3830-5"
       sodipodi:cx="39.642857"
       sodipodi:cy="46.17857"
       sodipodi:rx="7.8571429"
       sodipodi:ry="7.6785712"
       d="m 47.5,46.17857 a 7.8571429,7.6785712 0 1 1 -15.714286,0 7.8571429,7.6785712 0 1 1 15.714286,0 z"
       transform="matrix(1.1957541,0,0,1.2235624,144.59689,761.19315)" />
    <path
       sodipodi:type="arc"
       style="fill:#000000;fill-opacity:1;fill-rule:nonzero;stroke:#000000;stroke-width:1;stroke-linecap:round;stroke-linejoin:round;stroke-miterlimit:4;stroke-opacity:1;stroke-dasharray:none"
       id="path3830-51"
       sodipodi:cx="39.642857"
       sodipodi:cy="46.17857"
       sodipodi:rx="7.8571429"
       sodipodi:ry="7.6785712"
       d="m 47.5,46.17857 a 7.8571429,7.6785712 0 1 1 -15.714286,0 7.8571429,7.6785712 0 1 1 15.714286,0 z"
       transform="matrix(1.1957541,0,0,1.2235624,187.26356,803.85982)" />
    <path
       sodipodi:type="arc"
       style="fill:#000000;fill-opacity:1;fill-rule:nonzero;stroke:#000000;stroke-width:1;stroke-linecap:round;stroke-linejoin:round;stroke-miterlimit:4;stroke-opacity:1;stroke-dasharray:none"
       id="path3830-5-7"
       sodipodi:cx="39.642857"
       sodipodi:cy="46.17857"
       sodipodi:rx="7.8571429"
       sodipodi:ry="7.6785712"
       d="m 47.5,46.17857 a 7.8571429,7.6785712 0 1 1 -15.714286,0 7.8571429,7.6785712 0 1 1 15.714286,0 z"
       transform="matrix(1.1957541,0,0,1.2235624,59.263558,761.29315)" />
    <path
       sodipodi:type="arc"
       style="fill:#000000;fill-opacity:1;fill-rule:nonzero;stroke:#000000;stroke-width:1;stroke-linecap:round;stroke-linejoin:round;stroke-miterlimit:4;stroke-opacity:1;stroke-dasharray:none"
       id="path3830-51-1"
       sodipodi:cx="39.642857"
       sodipodi:cy="46.17857"
       sodipodi:rx="7.8571429"
       sodipodi:ry="7.6785712"
       d="m 47.5,46.17857 a 7.8571429,7.6785712 0 1 1 -15.714286,0 7.8571429,7.6785712 0 1 1 15.714286,0 z"
       transform="matrix(1.1957541,0,0,1.2235624,101.93023,803.95982)" />
    <path
       sodipodi:type="arc"
       style="fill:#000000;fill-opacity:1;fill-rule:nonzero;stroke:#000000;stroke-width:1;stroke-linecap:round;stroke-linejoin:round;stroke-miterlimit:4;stroke-opacity:1;stroke-dasharray:none"
       id="path3830-5-1"
       sodipodi:cx="39.642857"
       sodipodi:cy="46.17857"
       sodipodi:rx="7.8571429"
       sodipodi:ry="7.6785712"
       d="m 47.5,46.17857 a 7.8571429,7.6785712 0 1 1 -15.714286,0 7.8571429,7.6785712 0 1 1 15.714286,0 z"
       transform="matrix(1.1957541,0,0,1.2235624,-26.103108,846.59315)" />
    <path
       sodipodi:type="arc"
       style="fill:#000000;fill-opacity:1;fill-rule:nonzero;stroke:#000000;stroke-width:1;stroke-linecap:round;stroke-linejoin:round;stroke-miterlimit:4;stroke-opacity:1;stroke-dasharray:none"
       id="path3830-51-5"
       sodipodi:cx="39.642857"
       sodipodi:cy="46.17857"
       sodipodi:rx="7.8571429"
       sodipodi:ry="7.6785712"
       d="m 47.5,46.17857 a 7.8571429,7.6785712 0 1 1 -15.714286,0 7.8571429,7.6785712 0 1 1 15.714286,0 z"
       transform="matrix(1.1957541,0,0,1.2235624,16.563562,889.25982)" />
    <path
       sodipodi:type="arc"
       style="fill:#000000;fill-opacity:1;fill-rule:nonzero;stroke:#000000;stroke-width:1;stroke-linecap:round;stroke-linejoin:round;stroke-miterlimit:4;stroke-opacity:1;stroke-dasharray:none"
       id="path3830-5-2"
       sodipodi:cx="39.642857"
       sodipodi:cy="46.17857"
       sodipodi:rx="7.8571429"
       sodipodi:ry="7.6785712"
       d="m 47.5,46.17857 a 7.8571429,7.6785712 0 1 1 -15.714286,0 7.8571429,7.6785712 0 1 1 15.714286,0 z"
       transform="matrix(1.1957541,0,0,-1.2235624,-26.070108,1002.1985)" />
    <path
       sodipodi:type="arc"
       style="fill:#000000;fill-opacity:1;fill-rule:nonzero;stroke:#000000;stroke-width:1;stroke-linecap:round;stroke-linejoin:round;stroke-miterlimit:4;stroke-opacity:1;stroke-dasharray:none"
       id="path3830-51-7"
       sodipodi:cx="39.642857"
       sodipodi:cy="46.17857"
       sodipodi:rx="7.8571429"
       sodipodi:ry="7.6785712"
       d="m 47.5,46.17857 a 7.8571429,7.6785712 0 1 1 -15.714286,0 7.8571429,7.6785712 0 1 1 15.714286,0 z"
       transform="matrix(1.1957541,0,0,-1.2235624,16.596562,959.53187)" />
    <path
       sodipodi:type="arc"
       style="fill:#000000;fill-opacity:1;fill-rule:nonzero;stroke:#000000;stroke-width:1;stroke-linecap:round;stroke-linejoin:round;stroke-miterlimit:4;stroke-opacity:1;stroke-dasharray:none"
       id="path3830-5-1-6"
       sodipodi:cx="39.642857"
       sodipodi:cy="46.17857"
       sodipodi:rx="7.8571429"
       sodipodi:ry="7.6785712"
       d="m 47.5,46.17857 a 7.8571429,7.6785712 0 1 1 -15.714286,0 7.8571429,7.6785712 0 1 1 15.714286,0 z"
       transform="matrix(1.1957541,0,0,1.2235624,59.262892,846.52715)" />
    <path
       sodipodi:type="arc"
       style="fill:#000000;fill-opacity:1;fill-rule:nonzero;stroke:#000000;stroke-width:1;stroke-linecap:round;stroke-linejoin:round;stroke-miterlimit:4;stroke-opacity:1;stroke-dasharray:none"
       id="path3830-51-5-1"
       sodipodi:cx="39.642857"
       sodipodi:cy="46.17857"
       sodipodi:rx="7.8571429"
       sodipodi:ry="7.6785712"
       d="m 47.5,46.17857 a 7.8571429,7.6785712 0 1 1 -15.714286,0 7.8571429,7.6785712 0 1 1 15.714286,0 z"
       transform="matrix(1.1957541,0,0,1.2235624,101.92956,889.19382)" />
    <path
       sodipodi:type="arc"
       style="fill:#000000;fill-opacity:1;fill-rule:nonzero;stroke:#000000;stroke-width:1;stroke-linecap:round;stroke-linejoin:round;stroke-miterlimit:4;stroke-opacity:1;stroke-dasharray:none"
       id="path3830-5-2-4"
       sodipodi:cx="39.642857"
       sodipodi:cy="46.17857"
       sodipodi:rx="7.8571429"
       sodipodi:ry="7.6785712"
       d="m 47.5,46.17857 a 7.8571429,7.6785712 0 1 1 -15.714286,0 7.8571429,7.6785712 0 1 1 15.714286,0 z"
       transform="matrix(1.1957541,0,0,-1.2235624,59.262892,1002.1985)" />
    <path
       sodipodi:type="arc"
       style="fill:#000000;fill-opacity:1;fill-rule:nonzero;stroke:#000000;stroke-width:1;stroke-linecap:round;stroke-linejoin:round;stroke-miterlimit:4;stroke-opacity:1;stroke-dasharray:none"
       id="path3830-51-7-2"
       sodipodi:cx="39.642857"
       sodipodi:cy="46.17857"
       sodipodi:rx="7.8571429"
       sodipodi:ry="7.6785712"
       d="m 47.5,46.17857 a 7.8571429,7.6785712 0 1 1 -15.714286,0 7.8571429,7.6785712 0 1 1 15.714286,0 z"
       transform="matrix(1.1957541,0,0,-1.2235624,101.96256,959.46589)" />
    <path
       sodipodi:type="arc"
       style="fill:#000000;fill-opacity:1;fill-rule:nonzero;stroke:#000000;stroke-width:1;stroke-linecap:round;stroke-linejoin:round;stroke-miterlimit:4;stroke-opacity:1;stroke-dasharray:none"
       id="path3830-3"
       sodipodi:cx="39.642857"
       sodipodi:cy="46.17857"
       sodipodi:rx="7.8571429"
       sodipodi:ry="7.6785712"
       d="m 47.5,46.17857 a 7.8571429,7.6785712 0 1 1 -15.714286,0 7.8571429,7.6785712 0 1 1 15.714286,0 z"
       transform="matrix(1.1957541,0,0,1.2235624,79.262892,869.19382)" />
    <path
       sodipodi:type="arc"
       style="fill:#000000;fill-opacity:1;fill-rule:nonzero;stroke:#000000;stroke-width:1;stroke-linecap:round;stroke-linejoin:round;stroke-miterlimit:4;stroke-opacity:1;stroke-dasharray:none"
       id="path3830-5-1-2"
       sodipodi:cx="39.642857"
       sodipodi:cy="46.17857"
       sodipodi:rx="7.8571429"
       sodipodi:ry="7.6785712"
       d="m 47.5,46.17857 a 7.8571429,7.6785712 0 1 1 -15.714286,0 7.8571429,7.6785712 0 1 1 15.714286,0 z"
       transform="matrix(1.1957541,0,0,1.2235624,144.92989,846.52715)" />
    <path
       sodipodi:type="arc"
       style="fill:#000000;fill-opacity:1;fill-rule:nonzero;stroke:#000000;stroke-width:1;stroke-linecap:round;stroke-linejoin:round;stroke-miterlimit:4;stroke-opacity:1;stroke-dasharray:none"
       id="path3830-51-5-2"
       sodipodi:cx="39.642857"
       sodipodi:cy="46.17857"
       sodipodi:rx="7.8571429"
       sodipodi:ry="7.6785712"
       d="m 47.5,46.17857 a 7.8571429,7.6785712 0 1 1 -15.714286,0 7.8571429,7.6785712 0 1 1 15.714286,0 z"
       transform="matrix(1.1957541,0,0,1.2235624,187.59656,889.19382)" />
    <path
       sodipodi:type="arc"
       style="fill:#000000;fill-opacity:1;fill-rule:nonzero;stroke:#000000;stroke-width:1;stroke-linecap:round;stroke-linejoin:round;stroke-miterlimit:4;stroke-opacity:1;stroke-dasharray:none"
       id="path3830-5-2-1"
       sodipodi:cx="39.642857"
       sodipodi:cy="46.17857"
       sodipodi:rx="7.8571429"
       sodipodi:ry="7.6785712"
       d="m 47.5,46.17857 a 7.8571429,7.6785712 0 1 1 -15.714286,0 7.8571429,7.6785712 0 1 1 15.714286,0 z"
       transform="matrix(1.1957541,0,0,-1.2235624,144.96289,1002.1324)" />
    <path
       sodipodi:type="arc"
       style="fill:#000000;fill-opacity:1;fill-rule:nonzero;stroke:#000000;stroke-width:1;stroke-linecap:round;stroke-linejoin:round;stroke-miterlimit:4;stroke-opacity:1;stroke-dasharray:none"
       id="path3830-51-7-6"
       sodipodi:cx="39.642857"
       sodipodi:cy="46.17857"
       sodipodi:rx="7.8571429"
       sodipodi:ry="7.6785712"
       d="m 47.5,46.17857 a 7.8571429,7.6785712 0 1 1 -15.714286,0 7.8571429,7.6785712 0 1 1 15.714286,0 z"
       transform="matrix(1.1957541,0,0,-1.2235624,187.62956,959.46587)" />
    <path
       sodipodi:type="arc"
       style="fill:#000000;fill-opacity:1;fill-rule:nonzero;stroke:#000000;stroke-width:1;stroke-linecap:round;stroke-linejoin:round;stroke-miterlimit:4;stroke-opacity:1;stroke-dasharray:none"
       id="path3830-5-1-2-8"
       sodipodi:cx="39.642857"
       sodipodi:cy="46.17857"
       sodipodi:rx="7.8571429"
       sodipodi:ry="7.6785712"
       d="m 47.5,46.17857 a 7.8571429,7.6785712 0 1 1 -15.714286,0 7.8571429,7.6785712 0 1 1 15.714286,0 z"
       transform="matrix(1.1957541,0,0,1.2235624,144.59589,867.86082)" />
    <path
       sodipodi:type="arc"
       style="fill:#000000;fill-opacity:1;fill-rule:nonzero;stroke:#000000;stroke-width:1;stroke-linecap:round;stroke-linejoin:round;stroke-miterlimit:4;stroke-opacity:1;stroke-dasharray:none"
       id="path3830-51-7-6-5"
       sodipodi:cx="39.642857"
       sodipodi:cy="46.17857"
       sodipodi:rx="7.8571429"
       sodipodi:ry="7.6785712"
       d="m 47.5,46.17857 a 7.8571429,7.6785712 0 1 1 -15.714286,0 7.8571429,7.6785712 0 1 1 15.714286,0 z"
       transform="matrix(1.1957541,0,0,-1.2235624,187.29556,980.79954)" />
  </g>
</svg>
